/* XPM */
static char *haskell[] = {
/* columns rows colors chars-per-pixel */
"20 14 55 1 ",
"  c #020203",
". c #040305",
"X c #080407",
"o c #0A050A",
"O c #0D070D",
"+ c #0A090F",
"@ c #0D0B13",
"# c #0E0D15",
"$ c #150B14",
"% c #13101A",
"& c #15111D",
"* c #171321",
"= c #181422",
"- c #1A1625",
"; c #1F1425",
": c #1E1A2B",
"> c #1F1A2C",
", c #211221",
"< c #201C2E",
"1 c #211C2F",
"2 c #2B182B",
"3 c #231D32",
"4 c #241F33",
"5 c #251F34",
"6 c #262036",
"7 c #2B253E",
"8 c #2C253E",
"9 c #3B2039",
"0 c #3E213C",
"q c #40233E",
"w c #302844",
"e c #362D4D",
"r c #382F4F",
"t c #382F50",
"y c #3B3153",
"u c #3B3354",
"i c #3D3457",
"p c #41375C",
"a c #43385F",
"s c #453A63",
"d c #4A3F6A",
"f c #723E6E",
"g c #743E70",
"h c #4D426E",
"j c #4E4370",
"k c #504472",
"l c #56497A",
"z c #594C7F",
"x c #754072",
"c c #794275",
"v c #5B4D81",
"b c #5F5187",
"n c #5F5188",
"m c #924F8D",
"M c #92508E",
/* pixels */
"wsst%hnbu           ",
"@yss53vbv>          ",
" -asp*ybnh@         ",
"  8sse&hnby oOOOOOOO",
"  +yss61vbv10ccccccc",
"   =asp=ebbh;gMmmmmm",
"    7sse%hbby,099999",
"    7sse%hbbv>$0qqqq",
"   -asp*rbbbbj;fMmmm",
"  +yss51vbvlbby2fxxx",
"  8sse&hbbe1zbv4Xooo",
" -asp*ybnh@ ebbk#   ",
"@uss43vbz:  +dbbi.  ",
"wsse%hbby    >vbv1  "
};
