/* XPM */
static char *dummy[]={
"35 35 719 2",
"Qt c None",
".f c #000000",
"hK c #081117",
"#0 c #000000",
"#z c #060603",
"b7 c #000000",
".l c #122534",
"cT c #000000",
"dj c #3a3e3b",
".V c #000000",
"#y c #000000",
"#1 c #050503",
".m c #2c5477",
".C c #000000",
"hj c #010101",
"ar c #030302",
".v c #2c577d",
"hn c #0e0d09",
".U c #000000",
"hL c #091118",
"gE c #0e0c08",
"ge c #000000",
"#A c #0c0c0a",
"aq c #000000",
".k c #0a0f11",
".W c #152c3e",
"#d c #000000",
"ho c #12212e",
"hk c #18160f",
".e c #000000",
"hm c #14120e",
".w c #1a2f40",
"hl c #1a1711",
".B c #12191b",
"hW c #0b151e",
".u c #1c364c",
"eT c #000000",
"iE c #050e18",
"j# c #37342d",
".# c #142736",
"je c #000000",
".t c #1c364c",
"iV c #3e3629",
"jd c #280800",
"bi c #03060a",
"di c #0c0806",
"#e c #000000",
"#B c #111010",
"dK c #1e201f",
"dk c #0b0b0c",
"gf c #12100b",
"#Z c #1b344a",
"fT c #000000",
"fx c #132535",
".D c #081219",
"cw c #000000",
"d0 c #12212e",
"i. c #16140d",
"iF c #42392b",
"dD c #12212f",
"gL c #130d04",
"b8 c #595c60",
"#2 c #0a0a08",
".s c #142838",
"jf c #000000",
".g c #02080e",
"gM c #060d13",
"bI c #172a3d",
"dc c #1a3247",
".n c #264a68",
"aS c #0f1d29",
"aT c #000000",
"h9 c #10100d",
"g1 c #000001",
"ek c #1f3951",
"jg c #000000",
"as c #060604",
"#x c #0d0b06",
".T c #1e2728",
"cU c #2f261a",
"dd c #51352c",
"jh c #000000",
"g6 c #111e2b",
"hz c #182f43",
"fS c #1e3b54",
".X c #244562",
"de c #53362d",
"dh c #291a16",
"g5 c #0e0c09",
"b6 c #23435f",
"cS c #244662",
"jc c #40321a",
"#C c #161516",
"hM c #1d374e",
"cv c #264967",
"hi c #2d261d",
"d7 c #101213",
"fU c #181611",
"in c #283138",
"fa c #000000",
"gF c #1c1812",
"df c #5c3d33",
".x c #13202a",
"dL c #182228",
"f# c #04080c",
"jm c #39372c",
"dg c #54372e",
"#c c #1d2425",
"eq c #000204",
"gd c #284d6f",
"#D c #393938",
"h8 c #11181d",
"eU c #030202",
"im c #132638",
".j c #16222a",
"eC c #2a5072",
"ji c #130b01",
"#f c #183045",
"g0 c #28557e",
"gD c #2c557a",
"iD c #132333",
".E c #294d6e",
"#E c #5a5c5f",
".d c #0b141c",
".h c #0c151e",
"j. c #4b4230",
"fb c #040808",
"fy c #1a1914",
"bJ c #6c7074",
".A c #202e36",
"i0 c #2a5172",
"eV c #040405",
"d8 c #101619",
"er c #080b0c",
"#Y c #23425a",
"bh c #193044",
"hV c #221d15",
"ja c #403d33",
"ap c #274b6a",
"dJ c #100b09",
"ep c #1d1411",
"#3 c #181817",
"iZ c #3a4e5b",
"d6 c #0b0706",
"gN c #1c354b",
"i# c #213f5a",
"hX c #264765",
"jb c #423c2f",
"i1 c #2a5378",
"g4 c #13110d",
"g2 c #17150f",
".y c #18252e",
".r c #1b3349",
"gm c #1f170a",
".i c #142129",
"hp c #274b6a",
".Y c #2e587e",
"gn c #0f1c27",
".O c #223c51",
".N c #295175",
"dl c #16212b",
"dZ c #23405b",
"#F c #425568",
"dC c #23405b",
"cx c #494236",
"hU c #1e1f1e",
"es c #060604",
"eS c #2e587d",
"iW c #463e31",
"fw c #192f43",
"b9 c #66696e",
"i2 c #2c5579",
"iY c #444947",
"bj c #6f7477",
"iU c #5a503e",
"g3 c #191711",
"i5 c #27547e",
"gK c #2f291d",
"hh c #354e62",
"i3 c #2e577c",
".z c #202f36",
"gG c #29251b",
"i4 c #2d577d",
"bH c #254664",
"db c #284b6a",
"hA c #2a5072",
"at c #3b3c3d",
"jj c #342d23",
"cV c #4a4841",
"aU c #666a6d",
"ej c #2b5173",
"jl c #38352b",
".a c #21415b",
".F c #35658f",
".M c #35658f",
"gg c #312c20",
"iX c #464238",
"i6 c #3a5a72",
"dE c #835547",
".c c #152a3a",
"et c #0c1419",
"h7 c #294d6e",
"cR c #2e597d",
"aR c #34648f",
"dF c #835647",
"eI c #131819",
".o c #284d6c",
"b5 c #2d557a",
"jk c #39342a",
"go c #264a6a",
"dM c #1d2d3b",
"#g c #396c99",
".L c #3a6f9c",
"dI c #3c2721",
"iG c #4a4234",
"eH c #141616",
"cu c #2f5a80",
"d5 c #37241e",
".q c #1f3c54",
"#G c #355d80",
"hT c #1f2b34",
".P c #263a46",
"g7 c #376995",
".S c #3a4c51",
"eL c #101415",
"f. c #325f86",
"d9 c #182632",
"fR c #274968",
"hJ c #362e22",
"eD c #402b24",
".Z c #3b709f",
"hy c #3b3226",
"eE c #3a2721",
"i9 c #504a3c",
"eK c #0f110f",
"eo c #3a2620",
"il c #1f3b56",
".K c #3c73a1",
".b c #1e3b53",
"eJ c #14191a",
"hN c #366690",
"iC c #4a606f",
"#4 c #242324",
"#w c #374b53",
"eB c #34648e",
"hY c #376895",
"eW c #0c0f10",
"f2 c #2c3841",
"f1 c #3a3224",
"io c #3d4e59",
"i7 c #576063",
".p c #254865",
"gH c #3a3526",
"ao c #33638b",
"gJ c #353023",
"hI c #393c3b",
"fV c #3c392d",
"dG c #87584a",
"c. c #767571",
"e2 c #1d201e",
"eF c #231917",
".9 c #345f83",
"i8 c #595951",
"#X c #3d6583",
"eG c #171314",
"hq c #366793",
"bg c #407aae",
"gc c #33628c",
".8 c #396f9f",
"fc c #292c27",
"dH c #784f42",
"#b c #3f5358",
"gl c #4a412d",
".Q c #2f424a",
"dm c #345c7f",
"fv c #3a6e9d",
"hx c #40484b",
"gO c #417cb0",
"d1 c #744c3f",
".J c #3c73a2",
"ia c #34638d",
"gI c #3b3527",
"d2 c #734c3f",
"dY c #4686bc",
"eM c #315b7e",
"f3 c #345b7e",
"eu c #34638b",
"fz c #434237",
"dB c #4685bc",
"en c #482f28",
"#5 c #4e4e4e",
"cy c #756e5c",
"bK c #92979d",
"gC c #3a6f9f",
".G c #3b72a1",
"gZ c #3a72a4",
"iH c #494a47",
"#6 c #808488",
"da c #4789c1",
"cW c #5e6c74",
"iK c #386d9a",
".0 c #427fb3",
"bG c #4686be",
"e3 c #325572",
"hS c #38658c",
"ei c #498bc4",
"iJ c #40637e",
"#h c #4786bf",
"d4 c #6a453a",
"em c #55382f",
".R c #3b4f55",
"hB c #4684bc",
"iI c #475863",
"iT c #686456",
"e. c #3a6d99",
"dN c #3b6c97",
"eR c #3d75a6",
"gh c #433b2c",
"el c #573a30",
"#H c #4685bb",
"b4 c #4a8dc8",
"cQ c #4b8eca",
"gp c #498bc6",
"e1 c #1f211e",
"iL c #3c77aa",
"hg c #3f6e96",
".7 c #427eb2",
"ct c #4b90cc",
"#7 c #6a849d",
"d3 c #754c40",
"hH c #3c5160",
".I c #3d74a3",
"fQ c #427db1",
"#. c #38586f",
"h6 c #396e9c",
"au c #5d5f62",
"ik c #407099",
"fi c #3b392e",
".H c #3d75a5",
"eX c #131718",
"eA c #4d92cf",
"aQ c #427eb3",
"hZ c #488cc8",
"iM c #417eb2",
"an c #498bc2",
"bk c #a4a9af",
"ip c #456279",
"fj c #3c5261",
"iN c #4481b7",
".6 c #4483b9",
"g8 c #4584bc",
"#i c #539ee0",
"f0 c #58503d",
"iP c #3e7fba",
"iO c #4382b9",
"hO c #4482b8",
"aV c #a0a6aa",
"eY c #1e2121",
"fG c #3f4d54",
"#8 c #4c80af",
"f4 c #4e94d1",
"c# c #858072",
"fF c #4a4435",
"gb c #498ac3",
"iQ c #5085b0",
"gi c #5f5740",
"fH c #40698e",
"#s c #5095d1",
"iS c #78817f",
"cz c #958c76",
"hr c #5099d9",
"#r c #53a1e5",
"iB c #637e90",
"eZ c #232725",
".1 c #488cc6",
".5 c #4486be",
"e0 c #222727",
"ib c #4481b7",
"fh c #454439",
"e4 c #4683bb",
"hG c #497ca8",
"hw c #46647c",
"#W c #497a9e",
"eN c #4b8fcb",
"eQ c #519ad8",
"gk c #59513c",
"bL c #959899",
"e9 c #4584bc",
"#j c #58a8ef",
"#v c #42606f",
"ev c #4f98d8",
"gj c #655c44",
"h5 c #4b8fc9",
"gB c #4d91cd",
"gY c #4d93d0",
"iq c #4e7ca2",
"fk c #4476a3",
"is c #4b90ca",
"#q c #58a9f0",
"iR c #748e9f",
"fd c #353732",
"## c #3d5866",
"#t c #548cb7",
"#9 c #55a0e0",
"av c #7b7d7f",
"ir c #4e88b9",
"fE c #5f5b49",
"aw c #9aa0a7",
"fI c #5298d6",
"aP c #529ee1",
"e# c #52a1e5",
"fW c #4d4839",
"hf c #4f90ca",
"#p c #54a6ed",
"hC c #529cde",
"h0 c #52a0e4",
".4 c #4789c3",
"#u c #4e7a96",
"#k c #56a7ee",
"g9 c #57a5ea",
"ca c #958b74",
"#o c #4e9ee5",
"dO c #5099d9",
"bf c #5199da",
"fl c #559fdf",
"e5 c #57a6e8",
"hP c #59a9ef",
"it c #4d96d3",
"gP c #5098d7",
"fu c #5099d9",
"am c #56a2e3",
"ic c #57a4e8",
"eO c #59aaee",
"bM c #909089",
"fe c #41443d",
"dn c #467fb1",
"hR c #4d94d1",
"#V c #5997c6",
"be c #5aabf2",
"ew c #5aadf3",
"ga c #5eb2fb",
"gA c #5fb5ff",
"aY c #7c9fbd",
"aW c #b1b6bb",
"aX c #b2bbc4",
"a4 c #393e42",
"#a c #435a62",
"aZ c #4584bc",
"hc c #46769e",
"aD c #475765",
"ff c #484b43",
".3 c #498cc7",
"fg c #4a4d45",
"hb c #4a81b0",
".2 c #4a8fcb",
"#n c #4a97db",
"ay c #4b87bc",
"#m c #4b96d9",
"a0 c #4da1e8",
"gV c #4e6370",
"gt c #4e8dc4",
"ix c #4e9adc",
"gU c #4f6f88",
"aC c #4f7a9f",
"f6 c #5092cc",
"iu c #5099d8",
"bB c #50a2e9",
"fA c #515044",
"bp c #5190c4",
"hd c #5194cf",
"#I c #519bdc",
"iw c #519cdc",
"gW c #5287b3",
"hv c #528bbc",
"aa c #5291c8",
"iv c #529bdb",
"do c #529bdc",
"#l c #52a0e6",
"gT c #5398d6",
"gs c #53a4ea",
"f5 c #53a4ec",
"ba c #53a7ef",
"e8 c #54a1e2",
"a# c #54a4e8",
"az c #54a6ed",
"co c #54a9f3",
"a3 c #556d82",
"bo c #567b97",
"cD c #5691c4",
"ds c #569cd9",
"fK c #56a1e3",
"dX c #56a5ea",
"aB c #579cd6",
"gx c #579cd7",
"gX c #57a2e4",
"ht c #57a4e9",
"dA c #57a5ea",
"bF c #57a6ec",
"dy c #57a7ed",
"hF c #57a7ee",
"fJ c #57aaf4",
"cC c #588ab2",
"ij c #5898cd",
"ah c #589fdc",
"cZ c #58a1df",
"ha c #58a4e9",
"c0 c #58a5e9",
"d# c #58a9ef",
"#J c #58a9f0",
"hQ c #58aaf0",
"ab c #597e9f",
"cd c #5987ae",
"g. c #59a1dd",
"hs c #59a7ee",
"gq c #59a9ef",
"eh c #59aaf0",
"ft c #59aaf1",
"dr c #59abf3",
"gS c #59acf4",
"bC c #59aef9",
"cN c #59b0fc",
"ee c #59b2ff",
"bQ c #5a91c1",
"iy c #5a9ed8",
"ai c #5aabf3",
"bb c #5aaffa",
"dp c #5ab0fc",
"aL c #5ab1fb",
"h4 c #5babee",
"#T c #5bacf2",
"fn c #5bacf4",
"gQ c #5badf5",
"b3 c #5baef6",
"ea c #5bb0f9",
"#S c #5bb0fa",
"h1 c #5bb0fb",
"cp c #5bb0fc",
"dq c #5bb2ff",
"ef c #5bb4ff",
"bP c #5c829e",
"dx c #5c9fd9",
"bq c #5ca1de",
"#L c #5ca2e0",
"#K c #5cabf1",
"c9 c #5cacf1",
"al c #5cadf3",
"cP c #5caef7",
"dV c #5caff6",
"dz c #5caff7",
"cs c #5cb0f9",
"h# c #5cb1fb",
"dW c #5cb1fc",
"a. c #5cb2fa",
"cO c #5cb2fe",
"hE c #5cb3fc",
"ed c #5cb5ff",
"gw c #5d85a5",
"dU c #5dacf2",
"dR c #5dadf3",
"a1 c #5db0f8",
"bE c #5db0fa",
"eg c #5db1fa",
"gr c #5db1fb",
"dQ c #5db1fc",
"#R c #5db2fb",
"he c #5db2fd",
"hu c #5db2fe",
"ez c #5db3fc",
"aO c #5db3fd",
"hD c #5db3fe",
"aj c #5db4fe",
"d. c #5db4ff",
"aM c #5db5ff",
"dt c #5e99cc",
"aK c #5ea6e6",
"dT c #5eabef",
"fO c #5eacee",
"dS c #5eacf0",
"fr c #5eb1f9",
"gy c #5eb2f8",
"g# c #5eb2f9",
"b2 c #5eb2fd",
"ak c #5eb3fb",
"fP c #5eb3fc",
"fs c #5eb3fd",
"cr c #5eb3fe",
"cq c #5eb3ff",
"gR c #5eb4fe",
"b1 c #5eb4ff",
"if c #5eb5fe",
"aN c #5eb5ff",
"ec c #5eb6ff",
"cY c #5f94bf",
"c8 c #5fa0d9",
"cM c #5fa6e3",
"#U c #5fa8e2",
"id c #5fb4fe",
"dP c #5fb4ff",
"h. c #5fb5fd",
"ey c #5fb5fe",
"bc c #5fb5ff",
"ie c #5fb6fe",
"bD c #5fb6ff",
"aA c #5fb7ff",
"gz c #5fb8ff",
"a5 c #605f60",
"a2 c #6094c1",
"#Q c #60adf0",
"h3 c #60b5fb",
"bd c #60b6fe",
"e7 c #60b7ff",
"fm c #60b9ff",
"fB c #616153",
"#M c #619fd6",
"c1 c #61a7e4",
"fq c #61adf0",
"eb c #61b6ff",
"ex c #61b7ff",
"eP c #61b8ff",
"e6 c #61b9ff",
"fo c #62abe8",
"ig c #62b7fe",
"h2 c #62b8ff",
"f9 c #6390b4",
"#P c #63a6e3",
"b# c #64a1d6",
"fN c #64a3d8",
"dw c #659ac8",
"ii c #65ade9",
"gu c #66757c",
"cX c #668398",
"cn c #66a4db",
"fp c #66abe5",
"fX c #67624d",
"ce c #6794bd",
"#O c #67a4d9",
"fZ c #68624d",
"fL c #689cc6",
"#N c #68a2d4",
"fC c #6a6b5b",
"bA c #6aa2d3",
"ih c #6ab9fb",
"aJ c #6b9dc8",
"ag c #6b9ecb",
"fD c #6c6b5b",
"aE c #6c7074",
"f7 c #6d8594",
"dv c #6d9cc5",
"b0 c #6da5d6",
"du c #6e9ec8",
"fM c #6f9bbe",
"fY c #706a53",
"gv c #707167",
"br c #709abf",
"bO c #717873",
"cc c #738a96",
"cL c #739dc3",
"cE c #73a5d0",
"iA c #749ab2",
"iz c #74a6cd",
"ac c #758b9f",
"ax c #7594b1",
"c2 c #75a5cf",
"c7 c #77a5cd",
"f8 c #788485",
"cB c #7a93a0",
"bR c #7aa0c3",
"bt c #7b7f83",
"bs c #7c8e9f",
"bn c #7f929e",
"bN c #838279",
"af c #85a3bf",
"b. c #8aa4bc",
"c3 c #8bacc9",
"cm c #8ca8c1",
"cf c #8daecb",
"c6 c #93afc9",
"aI c #93b0c8",
"cb c #9a927c",
"bu c #9a9a9c",
"ad c #9aaebd",
"ae c #9aafc1",
"bz c #9dafc0",
"bS c #9eb4c7",
"c4 c #9fb7cd",
"c5 c #a0b6cb",
"cA c #a29e8d",
"bZ c #a2b5c7",
"bm c #a6abad",
"cK c #a6bcd0",
"bl c #acb0b4",
"aF c #afb4b7",
"cF c #afc3d6",
"a6 c #b5bac0",
"aH c #bac7d0",
"cl c #c2cdd7",
"aG c #c3cacf",
"bT c #c3cbd4",
"a9 c #c3d0d9",
"cg c #c9d2dd",
"bv c #ced4db",
"bY c #d0d9e0",
"by c #d3dadf",
"cG c #d4dbe4",
"bU c #dbdfe4",
"cJ c #dbe4eb",
"a7 c #e3e9ef",
"cH c #e5edf5",
"bV c #e7eef6",
"cI c #e9f0f6",
"ch c #eaebee",
"bw c #f0f6fb",
"a8 c #f1f9fb",
"bW c #f2faff",
"ck c #f3f8fa",
"bX c #f3fbff",
"ci c #f6faff",
"bx c #fbffff",
"cj c #fcffff",
"QtQtQtQtQtQtQtQtQtQtQtQtQtQt.#.a.b.c.d.e.fQtQtQt.g.h.i.j.kQtQtQtQtQtQt",
"QtQtQtQtQtQtQtQtQtQtQt.f.l.m.n.o.p.q.r.s.t.u.v.w.x.y.z.A.B.fQtQtQtQtQt",
"QtQtQtQtQtQtQtQtQtQtQt.C.D.E.F.G.H.I.J.K.L.M.N.O.P.Q.R.S.T.UQtQtQtQtQt",
"QtQtQtQtQtQtQtQt.f.V.W.X.Y.Z.0.1.2.3.4.5.6.7.8.9#.###a#b#c#dQtQtQtQtQt",
"QtQtQtQtQtQtQtQt.C#e#f#g#h#i#j#k#l#m#n#o#p#q#r#s#t#u#v#w#x#yQtQtQtQtQt",
"QtQtQt#z#A#B#C#D#E#F#G#H#I#J#K#L#M#N#O#P#Q#R#S#T#U#V#W#X#Y#Z#0QtQtQtQt",
"QtQtQt#1#2#3#4#5#6#7#8#9a.a#aaabacadaeafagahaiajakalamanaoapaqQtQtQtQt",
"QtQtQtarasatauavawaxayazaAaBaCaDaEaFaGaHaIaJaKaLaMaNaOaPaQaRaS.UQtQtQt",
"QtQtQt.CaTaUaVaWaXaYaZa0a1a2a3a4a5a6a7a8a9b.b#babbbcbdbebfbgbhbiQtQtQt",
"QtQtQt.V#ebjbkblbmbnbobpbqbrbsbtbubvbwbxbybzbAbBbCbcbDbEbFbGbHbIQtQtQt",
"QtQtQt#0#dbJbKbLbMbNbObPbQbRbSbTbUbVbWbXbYbZb0bBbCbcb1b2b3b4b5b6QtQtQt",
"QtQtQtQtb7b8b9c.c#cacbcccdcecfcgchcicjckclcmcncocpb1cqcrcsctcucvQtQtQt",
".f.f.f.fQt.CcwcxcyczcAcBcCcDcEcFcGcHcIcJcKcLcMcNcOb1cqcrcPcQcRcSQtQtQt",
"#y.Vb7b7cT#0.VcUcVcWcXcYcZc0c1c2c3c4c5c6c7c8c9d.b1cqb1bEd#dadbdcQtQtQt",
"dddedfdgdhdidjdkdldmdndodpdqdrdsdtdudvdwdxdy#SaNb1cqb1dzdAdBdCdDQtQtQt",
"dEdFdGdHdIdJdKdLdMdNdOdrdPb1dQdzdRdSdTdUdVdWaOcrcrcqb1dzdXdYdZd0QtQtQt",
"d1d2d3d4d5d6d7d8d9e.e#eaebbcb1ecedeeeeefaMaNcrcrcrcqb1egeheiejekQtQtQt",
"elemeneoepeqereseteuevewexbccrcrcrcrcrcrcrcrcrcrcrcrcreyezeAeBeCQtQtQt",
"eDeEeFeGeHeIeJeKeLeMeNeOePbccrcrcrcrcrcrb1b1aMaMb1cqcrbDbDeQeReSeT.VQt",
"eUeVeWeXeYeZe0e1e2e3e4e5e6bDcrcrcrcrcrcrb1b1d.d.cqcqcrbDe7e8e9f.f#.eQt",
"fafbfcfdfefffgfhfifjfkflfmbDcrcrcrcrcqcr#SfnfofpfqfrfsaNbcftfufvfwfxQt",
"fafyfzfAfBfCfDfEfFfGfHfIaAbDcrcrcrcrb1crfJfKfLfMfNfOfPaNcraObefQfRfSQt",
"fTfUfVfWfXfYfZf0f1f2f3f4#RdPcqcrcrcrbDdPf5f6f7f8f9g.g#aAcrbDgagbgcgdcT",
"gegfggghgigjgkglgmgngogpgqgraNcrcrcrbDbcgsgtgugvgwgxgygzcre7gAgBgCgD.C",
"#0gEgFgGgHgIgJgKgLgMgNgOgPgQe7dPcrcraNgRgSgTgUgVgWgX#RbDcre7bcgYgZg0cT",
"QtQt.eg1g2g3g4g5#y.Ug6g7g8g9h.dPcrcrb1gRh#hahbhchdfthedPcre7dPhfhghhhi",
"QtQtb7hjhkhlhmhn.f#0hohphqhrdzfsbccrcrcrfsgrhshtgQdQcrcrcraAhuhvhwhxhy",
"QtQtQtQtQtQtQtQtQtQtQthzhAhBhCcse7b1crcrcrdPaNaNaNb1hDb1bDhEhFhGhHhIhJ",
"QtQtQtQtQtQtQtQtQtQthKhLhMhNhOhPe7cqcqcrcrcrcrcrcrcrhDecgzhQhRhShThUhV",
"QtQtQtQtQtQtQtQtQtQtQtQthWhXhYhZh0h1bDe7e7e7e7e7e7exh2h3h4h5h6h7h8h9i.",
"QtQtQtQtQtQtQtQtQtQtQtQtb7#ei#iaibicegideyeyeyieifigihiiijikilim#0QtQt",
"QtQtQtQtQtQtQtQtQtQtQtQtQt.CinioipiqirisitiuiviwixiyiziAiBiCiDiEQtQtQt",
"QtQtQtQtQtQtQtQtQtQtQtQtQtQtiFiGiHiIiJiKiLiMiNiOiPiQiRiSiTiU#dQtQtQtQt",
"QtQtQtQtQtQtQtQtQtQtQtQtQtQtiViWiXiYiZi0i1i2i3i4i5i6i7i8i9j.#0QtQtQtQt",
"QtQtQtQtQtQtQtQtQtQtQtQtQtQtj#jajbjcjdaqjejfjgjhaTjijjjkjljmQtQtQtQtQt"};
