/* XPM */
static char *dummy[]={
"39 43 565 2",
"Qt c None",
".8 c #000000",
"gh c #007f7f",
"gK c #7f7f7f",
".g c #555555",
"#S c #aaaaaa",
"aM c #404040",
".J c #333333",
"bw c #2a5555",
"#a c #555555",
".# c #494949",
"cH c #929292",
"#F c #404060",
"#s c #334c4c",
"#p c #4c4c4c",
"de c #464646",
"aN c #5d5d5d",
".3 c #4e4e4e",
"dr c #334455",
"bU c #888888",
"#l c #404050",
"dF c #505050",
"gY c #4b4b4b",
"bx c #868686",
"gx c #3d3d49",
".f c #494949",
"dd c #3a4651",
".T c #464646",
"gW c #434343",
"fC c #354a55",
"dX c #404040",
".K c #404a60",
"gt c #3d4752",
"fp c #474747",
"gc c #394255",
".x c #464646",
"c. c #3b4455",
"#m c #4c4c4c",
"bK c #888888",
".E c #464646",
"gu c #434343",
"dY c #374553",
"cq c #515e6b",
"gR c #414141",
".Y c #484848",
".q c #4b4b4b",
"do c #374955",
".y c #494949",
"cZ c #5b5b5b",
"f3 c #434343",
"gX c #474747",
"#c c #3a4555",
"gQ c #444444",
"gG c #424242",
"#B c #3b4553",
".a c #4a4a4a",
".1 c #474747",
".4 c #495b70",
"f4 c #444444",
"eO c #5d5d5d",
"gy c #405060",
"#J c #526e81",
"f5 c #3a4655",
".e c #494949",
"fq c #454545",
"eQ c #3c4756",
"## c #4b4b4b",
"gI c #434343",
"gF c #4c5462",
"gi c #3d4b5a",
"fA c #444444",
"gw c #434343",
"gO c #424242",
"gU c #444444",
"df c #474747",
"gS c #404343",
".z c #4a4a4a",
"gN c #4f5960",
".b c #484848",
"fM c #3d4d5e",
"ac c #888888",
".h c #484848",
".L c #556e84",
".w c #484848",
"#K c #3d4d5c",
"gV c #444444",
".d c #484848",
"gv c #444444",
".P c #4c4c4c",
"gg c #434343",
"fU c #454545",
"fV c #444444",
"eP c #434343",
"e7 c #454545",
"fB c #454545",
"gT c #3e474c",
"fr c #444444",
"dG c #3b4856",
"gP c #454545",
".c c #484848",
"cY c #485d70",
"gH c #444444",
"gJ c #434343",
"fZ c #465a6a",
"dp c #6a7174",
"#q c #474749",
".I c #494949",
".Q c #484848",
".0 c #4f4f4f",
"gf c #434343",
"gz c #4f6a7d",
".F c #4a4a4a",
"#5 c #58758d",
"fW c #405061",
"#C c #494949",
"#E c #4b4b4b",
"#t c #3f5161",
"#T c #5a7a90",
"gs c #435767",
".U c #5d7e9b",
"fT c #62686c",
"#d c #435466",
".M c #474749",
"dq c #727678",
"ds c #425768",
".v c #4a4a4a",
"a1 c #757e88",
".A c #4b4b4b",
"gA c #5b7a94",
".p c #545454",
"#G c #688eab",
"fg c #42474d",
"gC c #4d687b",
"e6 c #567289",
"dD c #7d7d7d",
"#R c #6c6c6c",
"dE c #646464",
"as c #5b5b5b",
"#k c #547089",
"gd c #686e71",
"cG c #536d87",
"gB c #59778f",
"gL c #6a6e71",
"gb c #4f6b80",
"#e c #526c81",
"cr c #787878",
"ge c #666c70",
"gj c #5e7e98",
"eN c #7a7e81",
"#A c #506a80",
"a2 c #747474",
"#4 c #767676",
".i c #494949",
"bT c #8a919b",
"#Y c #4a5e73",
".D c #5e5e5e",
"eA c #516c83",
".X c #739fc0",
"#b c #494949",
"dg c #4a5760",
"f0 c #777b7a",
"ff c #5e809a",
".7 c #78a6c8",
"#f c #58758d",
"fs c #567388",
"ez c #6c6c6c",
".S c #484848",
"fz c #5d8099",
"dC c #797b7b",
".Z c #494949",
"av c #343b42",
".r c #494949",
"gr c #5d7d98",
"fL c #747878",
".9 c #4b4b4b",
"dn c #658ca5",
"ad c #505860",
"#I c #5a6d7a",
"aL c #969da5",
"#g c #59778f",
"cp c #a3aaaf",
"fo c #6388a1",
"ey c #9c9c9c",
"f6 c #5d7c95",
"#X c #83badd",
".V c #87bfe3",
"#o c #575757",
"ei c #b0b1b2",
"ar c #7b8187",
"gD c #8d8e87",
"at c #515151",
".H c #4d4d4d",
".o c #5e5e5e",
"gk c #6d97b5",
".B c #555555",
"#u c #61859e",
"e8 c #526574",
".u c #575757",
"c0 c #717171",
"aO c #777777",
"f2 c #9a9a8f",
"#L c #61849d",
"#r c #494949",
"#n c #4c4c4c",
"dy c #797c7a",
"bf c #abb0b8",
"ej c #6389a3",
"gM c #a4a395",
"dW c #b5b7b8",
".N c #4f4f4f",
".O c #5e5e5e",
".5 c #88c1e6",
"fD c #6b94b1",
".j c #4c4c4c",
"cI c #7f7f7f",
"b9 c #c3c7cb",
"au c #474747",
"#H c #545f66",
"c# c #9c9c9c",
"bJ c #bbc0c5",
"gE c #d5ccb2",
"dz c #676560",
"bg c #9b9b9b",
".G c #494949",
"aw c #638ea8",
"#z c #6e99b6",
"fY c #709dbb",
"#O c #353f48",
".2 c #494949",
"#Q c #4e4e4e",
"#. c #585858",
"ex c #c8cacc",
"dx c #5c717d",
"dB c #6d6b66",
"fX c #6e9ab9",
"gq c #709dbb",
"ga c #719fbd",
"dc c #80b3d6",
"bj c #090909",
"cv c #101010",
"a8 c #10181c",
"bA c #1b1b1b",
"aa c #1b2228",
"bO c #1b272f",
"aS c #1f2223",
"bY c #202e37",
"cb c #242424",
"bX c #282828",
"cM c #283944",
"bN c #292929",
"#3 c #333333",
"#2 c #334351",
"cc c #334856",
"bB c #334957",
"bF c #394455",
"ck c #394655",
"cL c #3e3e3e",
"#P c #414141",
"ab c #424242",
"cl c #475361",
".R c #494949",
"c3 c #4a4c4c",
".s c #4b4b4b",
"#V c #4c4e4f",
"dM c #4d575c",
"c4 c #4e6b7d",
"#D c #505050",
"dA c #53514d",
".t c #535353",
".m c #545454",
".n c #565656",
"dN c #565d60",
".l c #575757",
"dL c #576770",
"bk c #577c94",
".k c #585858",
".C c #595959",
"bu c #596270",
"#7 c #596973",
"aR c #5a5a5a",
"cu c #5b5b5b",
"d6 c #64686b",
"cw c #648faa",
"#h c #658aa7",
"bz c #676767",
"d7 c #686969",
"eR c #68889d",
"#i c #698fab",
"aT c #6997b3",
"cj c #6b737d",
"am c #6c93b0",
"#j c #6c95b3",
"ca c #6d6d6d",
"dK c #6d899c",
"ak c #6d91ab",
"c2 c #6e6e6e",
"cB c #6e737d",
"ao c #6e8aa1",
"ae c #7092a9",
"dh c #7196ad",
"bW c #727272",
"ek c #7298b0",
"bM c #737373",
"bZ c #7397b2",
"#6 c #7398af",
"d0 c #739bb4",
"fN c #73a1c0",
"bl c #7497b2",
"dZ c #74a1c0",
"eh c #757575",
"cF c #7595ad",
"ci c #75a1be",
"dk c #76a3c2",
"b6 c #76a3c3",
"d5 c #778289",
"al c #7795ac",
"dj c #77a4c2",
"aQ c #787878",
"cx c #79a3c0",
"cm c #79a4c2",
"#N c #79aacb",
"cO c #7a99b1",
"dt c #7aa7c3",
"fK c #7aabcb",
"aj c #7baccd",
"gl c #7baecf",
"c1 c #7c7c7c",
"dw c #7ca8c4",
"dI c #7caac7",
"cT c #7caecf",
"#Z c #7caed0",
"b7 c #7dafd0",
"dO c #7e8183",
"cU c #7e848c",
"bC c #7e95a6",
"b5 c #7ea1ba",
"aV c #7eaecf",
"#v c #7eb0d2",
"eg c #7f7f7f",
"cW c #7f97ab",
"bH c #7fa5c0",
"dH c #7fafcf",
"fQ c #7fb3d6",
"eC c #8097a4",
"aG c #8099ab",
"ch c #80b4d6",
"dQ c #818181",
"e4 c #81afcd",
"fj c #81b3d3",
"c6 c #81b3d4",
"f7 c #81b8da",
"dR c #828282",
"g. c #82abc4",
"e9 c #82aec9",
"fd c #82b3d1",
"fh c #82b7da",
"d. c #8395a5",
"bb c #839db0",
"az c #83b7da",
"fw c #83bbde",
"fH c #83bbdf",
"#9 c #83bbe0",
"du c #84b8da",
"an c #84bade",
"fv c #84bce0",
"bQ c #858c96",
"#U c #85badc",
"dl c #85bce0",
"fI c #85bee2",
"fG c #85bee3",
"fx c #85bfe3",
"aP c #868686",
"fR c #868f90",
"bR c #86a3b8",
"a# c #86bfe3",
"c5 c #86bfe4",
"gn c #87aabe",
"dJ c #87badb",
"fO c #87c0e5",
"fF c #87c0e6",
"fn c #87c1e6",
"#y c #88c0e6",
"#1 c #88c1e6",
"#8 c #88c2e6",
"fJ c #88c2e7",
"fm c #88c3e8",
"d4 c #89959a",
"br c #89c2e7",
".6 c #89c3e8",
"fP c #89c4e9",
"gm c #89c5ea",
"d3 c #8a969a",
"cz c #8a9cab",
"aI c #8abee0",
"cS c #8ac3e9",
"g# c #8ac4e9",
"fi c #8ac5ea",
"fy c #8ac6eb",
"e3 c #8ba5b5",
"fc c #8ba6b7",
"eS c #8bc3e7",
"eB c #8bc5e9",
"d# c #8bc5eb",
"di c #8bc6eb",
"fl c #8bc6ec",
"a9 c #8bc7ec",
"fk c #8bc7ed",
"cd c #8cc6ec",
"#M c #8cc7ec",
"fe c #8cc7ed",
"ax c #8cc8ee",
"be c #8d939e",
"ah c #8dc9ef",
"ay c #8dc9f0",
"cK c #8e8e8e",
"en c #8e908e",
"ft c #8ecaf1",
"fE c #8ecbf1",
"aU c #8ecbf2",
"aA c #8f9da8",
"b. c #8fcaf1",
"a. c #8fccf3",
"aH c #90cdf4",
"cX c #90cdf5",
"e5 c #90cef5",
"ct c #919191",
"eT c #91a3b0",
"dv c #91cef6",
"a7 c #929292",
"bn c #9298a2",
"#W c #92cef4",
"dm c #92cff6",
"aY c #92cff7",
"#0 c #92d0f8",
"fu c #92d1f9",
"cV c #939296",
"e. c #939393",
"dP c #939394",
"cN c #93d1f9",
"cA c #93d2fa",
"ai c #94d3fb",
"#w c #94d3fc",
"ag c #94d4fc",
"gp c #95a2a2",
"bS c #95aebf",
"af c #95d4fd",
"#x c #95d5fe",
"cJ c #969696",
".W c #96d6ff",
"bi c #979797",
"eM c #98a8b2",
"a5 c #9a9a9a",
"b3 c #9ca1aa",
"db c #9ca8ae",
"aZ c #9cb0bf",
"ep c #9d9fa1",
"c7 c #9da8b1",
"aX c #9da8b2",
"eD c #a0a4a2",
"bv c #a1a7ae",
"d2 c #a2adab",
"a3 c #a3a3a3",
"ap c #a3a8ad",
"b# c #a3abb2",
"e2 c #a4b3bd",
"a6 c #a5a5a5",
"eF c #a5acb1",
"cn c #a5adb6",
"f. c #a5b0b7",
"by c #a7a7a7",
"eE c #a7aba8",
"f8 c #a7c9d6",
"bE c #a8adb4",
"fb c #a8b6c1",
"d8 c #a9a9a9",
"ce c #a9afb6",
"dS c #aaabac",
"eL c #aab3b8",
"aq c #abafb5",
"a4 c #acacac",
"bV c #adadad",
"b2 c #adb1b8",
"dT c #afb0b1",
"cR c #afb6bc",
"bt c #b0b4bb",
"bL c #b1b1b1",
"bP c #b1b5bc",
"da c #b1b6b8",
"e1 c #b1bac1",
"eo c #b2b2b2",
"cs c #b3b3b3",
"dU c #b3b4b5",
"bh c #b4b4b4",
"dV c #b4b5b6",
"bI c #b5bec6",
"ea c #b6b8b9",
"e# c #b7b9ba",
"bo c #b7bbc1",
"ef c #b8b8b8",
"f# c #b8bbbf",
"d1 c #b8cbcb",
"bG c #b9bcc2",
"eH c #babec1",
"d9 c #bcbcbc",
"eb c #bcbebf",
"eq c #bcbfc2",
"eW c #bdc1c6",
"bc c #bdc4cb",
"el c #becfcc",
"fa c #c3cacf",
"eU c #c4cbd0",
"aW c #c5c9cd",
"bs c #c7ccd1",
"co c #c8cbce",
"eX c #c8ced5",
"e0 c #cacfd2",
"f9 c #cbd0c3",
"cD c #cdc0be",
"eK c #cdcfd2",
"er c #ced1d3",
"b8 c #ced1d5",
"ee c #cfcfcf",
"cP c #cfd2d5",
"aF c #cfd2d6",
"ec c #d2d3d5",
"eV c #d2d7db",
"ew c #d4d4d4",
"eY c #d4d8dd",
"cE c #d6c7c3",
"c8 c #d7d9db",
"eZ c #d7dbdf",
"fS c #d9cfb4",
"bq c #dadcdf",
"bd c #dbdde0",
"cy c #dddee0",
"aJ c #dddfe2",
"go c #ded4b7",
"f1 c #dfd4b8",
"cC c #e1d0cb",
"em c #e1d6b9",
"es c #e1e3e5",
"aB c #e1e3e6",
"ev c #e2e2e2",
"cg c #e5e7e9",
"eJ c #e6e8e9",
"ed c #e7e8e9",
"eG c #ebeced",
"et c #ececed",
"b0 c #ededee",
"bp c #edeff1",
"eI c #eeefef",
"bm c #efeff0",
"eu c #f0f0f0",
"c9 c #f1f1f1",
"b4 c #f3f3f4",
"bD c #f4f4f4",
"cf c #f7f7f7",
"cQ c #f8f8f8",
"aE c #f8f8f9",
"a0 c #fbfbfc",
"ba c #fcfcfc",
"aK c #fdfdfd",
"aC c #fdfefe",
"b1 c #fefefe",
"aD c #ffffff",
"QtQtQtQtQtQtQtQtQtQtQtQtQtQtQtQtQtQtQtQtQtQtQtQtQtQtQtQtQtQtQtQtQtQtQtQtQtQtQt",
"QtQtQtQtQtQtQtQtQtQtQtQtQtQt.#.a.b.c.d.e.fQtQtQtQtQtQtQtQtQtQtQtQtQtQtQtQtQtQt",
"QtQtQtQtQtQtQtQtQtQtQt.g.h.i.j.k.k.l.m.n.l.o.p.qQtQtQtQtQtQtQtQtQtQtQtQtQtQtQt",
"QtQtQtQtQtQtQtQtQtQt.a.r.s.t.u.v.w.q.x.y.z.A.B.C.D.EQtQtQtQtQtQtQtQtQtQtQtQtQt",
"QtQtQtQtQtQtQtQtQt.F.G.s.H.I.JQtQtQtQtQtQt.K.L.M.N.O.PQtQtQtQtQtQtQtQtQtQtQtQt",
"QtQtQtQtQtQtQtQt.Q.R.R.S.TQtQtQtQtQtQtQt.U.V.W.X.Y.Z.n.0QtQtQtQtQtQtQtQtQtQtQt",
"QtQtQtQtQtQtQt.1.2.R.i.3QtQtQtQtQtQtQt.4.5.W.6.7.8.f.9#.##QtQtQtQtQtQtQtQtQtQt",
"QtQtQtQtQtQt#a.Z.R#b#aQtQtQt.8#c#d#e#f#g#h#i#j#k#lQt#m#n#o#pQtQtQtQtQtQtQtQtQt",
"QtQtQtQtQtQt#q.R#r.xQtQt#s#t#u#v#w.W.W.W.W.W#x#y#z#A#B#C#D#EQtQtQtQtQtQtQtQtQt",
"QtQtQtQt#F#G#H.R#I#JQt#K#L#M.W.W.W.W.W.W.W.W.W.W.W.W#N#O#P#Q#R#SQtQtQtQtQtQtQt",
"QtQtQtQt#T#U.R#V#W#X#Y#Z#0.W.W.W.W.W.W.W.W.W.W.W.W.W.W#1#2#3.s#4QtQtQtQtQtQtQt",
"QtQtQtQt#5#6.R#7#8.W#9a..W.W.W.W.W.W.W.W.W.W.W.W.W.W.W.Wa#aaab.nacQtQtQtQtQtQt",
"QtQtQtQt.#ad.Raeafagahai.W.W#wajakalaman.W.W.W.W.W.W.W.W.Waoapaqar.#QtQtQtQtQt",
"QtQtQt.Tasatauavawaxay.W.WazaAaBaCaDaEaFaGaH.W.W.W.W.W.WaIaJaDaDaKaLaMQtQtQtQt",
"QtQtaNaOaPaPaQaRaSaTaU.WaVaWaDaDaDaDaDaDaCaXaY.W.W.W.W.WaZaDaDaDaDa0a1QtQtQtQt",
"QtQta2a3a4a5a6a7aba8a9b.b#baaDaDaDaDaDaDaDaCbb.W.W.W.W.WbcaDaDaDbdbebfQtQtQtQt",
"QtQtbgbhbhbhbiaP.lbjbkblbmaDaDaDaEbnbobpaDaDbqbr.W.W.W.WbsaDaDaDbtbubvbwQtQtQt",
"Qtbxa4bhbhbhbyaPbzbAbBbCbDaDaDaDbEbFaFbGaDaDaDbH.W.W.W.WbIaDaDaDaKbdbJQtQtQtQt",
"QtbKbLbhbhbhbLaPbMbNbObCbDaDaDaDbPbFbFbQaDaDaDbR.W.W.W.WbSbaaDaDaDaDbTQtQtQtQt",
"QtbUbVbhbhbhbLaPbWbXbYbZb0b1aDaDbab2b3b4aDaDaDb5.W.W#0b6b7b8aKaDaDb9c.QtQtQtQt",
"QtQtc#bhbhbhbyaPcacbcccdcecfaDaDaDaDaDaDaDaDcgch.WcicjckclcmcncocpcqQtQtQtQtQt",
"QtQtcrbVbhcsctaPcucvcw.WcxcybaaDaDaDaDaDaDaDcz.WcAcBcCcDcEcF.WcGQtQtQtQtQtQtQt",
"QtQtcHcIcJcKaPaQcLcMcN.W.WcOcPcQaKaDaDaDb1cRcS.W#xcTcUcVcWcX#xcYQtQtQtQtQtQtQt",
"QtQtQtcZc0c1c2c3c4c5cA.W.W.Wc6c7c8c9c9cPd.d#.W.W.W#wdadb.W.WdcddQtQtQtQtQtQtQt",
"QtQtQtQtdedfdgdhdiax#0.W.W.W.W.Wandjdkdl.W.W.W.W.W#xdm#w.WafdndodpdqdrQtQtQtQt",
"QtQtQtQtQtQtdsdtduaxdv.W.W.W.W.W.W.W.W.W.W.W.W.W.W.W.WdmdwdxdydzdAdBdCdDdEdFQt",
"QtQtQtQtQtQtdGdHdIaxa..W.W.W.W.W#x.W.W.W.WdidJdKdLdMdNdOdPdQdRbydSdTdUdVdWdXQt",
"QtQtQtQtQtQtdYdZd0axah.W.W.W.W.Wd1d2d3d4d5d6d7d8d9e.dSe#eaebecedeeefegehei.gQt",
"QtQtQtQtQtQt.8ejekaxaxai.W.W.W.WelemememeneoepeqereseteueueueueuevewexeyezQtQt",
"QtQtQtQtQtQtQteAekaxaxaH.W.W.W.WeBeCeDeEeFeGeHeteueueueueIeJeKeLeMeNeOaMePQtQt",
"QtQtQtQtQtQtQteQeRaxaxaxai.W.W.W.W#xeSeTeUeVeWeXeYeZe0e1e2e3e4a9e5e6QtQte7QtQt",
"QtQtQtQtQtQtQt.8e8axaxaxahaf.W.W.W.W.Wa.e9f.f#fafbfcfdfeaxaxaxaxe5ffQt.8e7QtQt",
"QtQtQtQtQtQtQtQtfgfhaxaxaxah#0.W.W.W.W#xayfifjfkaxaxaxaxaxflfmfnfkfoQtfpfqQtQt",
"QtQtQtQtQtQtQtQtfrfsaxaxaxaxaxftfu#x.W.W#0axaxaxaxflfmc5fvfwfxfyaxfzQtfA.fQtQt",
"QtQtQtQtQtQtQtQtfBfCfDaxaxaxaxaxaxaxftaHfEfFc5fGfvfwfHfIfJflaxaxfKfL.8ePQtQtQt",
"QtQtQtQtQtQtQtQte7QtfMfNaxaxaxaxaxaxaxaxflfOfOfJfPflaxaxaxaxaxfQfRfSfTfUQtQtQt",
"QtQtQtQtQtQtQtQtfVQtQtfWfXaxaxaxaxaxaxaxaxaxaxaxaxaxaxaxaxaxfYfZf0f1f2f3f4QtQt",
"QtQtQtQtQtQtQtQtfVQtQtQtf5f6f7axaxaxaxaxaxaxf8f9g.axaxg#gagbgcQt#FgdgeQtgf.gQt",
"QtQtQtQtQtQtQt.8ggQtQtQtQtghgigjgkglgmaxaxaxgngogpgqgrgsgtQtQtQtQtQtQtgufrQtQt",
"QtQtQtQtQtQtQtaMgvePe7e7e7e7fBfBgwgxgygzgAgBgCgDgEgFQtQtQtQtQtQt.8gGgHgI.8QtQt",
"QtQtQtQtQtQtQtQtQtQtQtQtQtQtQtQtdXfBgJf4gKQtQtgLgMgNQtQtQtdegOgPgHgQQtQtQtQtQt",
"QtQtQtQtQtQtQtQtQtQtQtQtQtQtQtQtQtQtQtgRfBfBePgSgTgUePfVfBgVgWQtQtQtQtQtQtQtQt",
"QtQtQtQtQtQtQtQtQtQtQtQtQtQtQtQtQtQtQtQtQtQt.8gWgXgYQtQtQtQtQtQtQtQtQtQtQtQtQt"};
