/* XPM */
static char *haskell[] = {
/* columns rows colors chars-per-pixel */
"20 14 13 1 ",
"  c None",
". c #443960",
"X c #443961",
"o c #443A61",
"O c #453A61",
"+ c #453A62",
"@ c #5D5086",
"# c #5E5086",
"$ c #5F5186",
"% c #5F5087",
"& c #8F4E8B",
"* c #904E8B",
"= c #914D8C",
/* pixels */
"++++ ####           ",
" ++++ ###           ",
"  +++ ####          ",
"  ++++ ####         ",
"   ++++ ###  &&&&&&&",
"    +++ #### =&&&&&&",
"    ++++ ####       ",
"    ++++ ####       ",
"    +++ ###### *&&&&",
"   ++++ ####### &&&&",
"  ++++ #### ###     ",
"  +++ ####  ####    ",
" ++++ ###    ####   ",
"++++ ####     ###   "
};
